STARTFONT 2.1
FONT -pmaso-terminalpants-medium-r-normal--12-120-75-75-c-60-iso8859-1
SIZE 12 75 75
FONTBOUNDINGBOX 6 13 0 -2
STARTPROPERTIES 24
CHARSET_REGISTRY "iso8859"
SLANT "r"
FAMILY_NAME "terminalpants"
POINT_SIZE 120
SPACING "M"
FOUNDRY "pmaso"
WEIGHT 10
WEIGHT_NAME "medium"
QUAD_WIDTH 5
RESOLUTION_X 75
RESOLUTION_Y 75
SETWIDTH_NAME "normal"
X_HEIGHT 12
CHARSET_ENCODING "1"
FONTNAME_REGISTRY ""
COPYRIGHT "MIT Licence: Copyright Nathan Baxter"
ADD_STYLE_NAME ""
AVERAGE_WIDTH 60
PIXEL_SIZE 12
_ORIGINAL_FONT_NAME "Nexus"
DEFAULT_CHAR 0
FONT_DESCENT 3
FONT_ASCENT 10
_GBDFED_INFO "Edited with gbdfed 1.6."
ENDPROPERTIES
CHARS 255
STARTCHAR C000
ENCODING 0
SWIDTH 480 0
DWIDTH 6 0
BBX 4 11 1 -1
BITMAP
F0
F0
F0
F0
F0
F0
F0
F0
F0
F0
F0
ENDCHAR
STARTCHAR C001
ENCODING 1
SWIDTH 480 0
DWIDTH 6 0
BBX 5 5 0 2
BITMAP
20
70
F8
70
20
ENDCHAR
STARTCHAR C002
ENCODING 2
SWIDTH 480 0
DWIDTH 6 0
BBX 6 13 0 -2
BITMAP
54
A8
54
A8
54
A8
54
A8
54
A8
54
A8
54
ENDCHAR
STARTCHAR C003
ENCODING 3
SWIDTH 480 0
DWIDTH 6 0
BBX 4 7 0 2
BITMAP
A0
E0
A0
00
70
20
20
ENDCHAR
STARTCHAR C004
ENCODING 4
SWIDTH 480 0
DWIDTH 6 0
BBX 5 7 0 0
BITMAP
E0
80
C0
B8
20
30
20
ENDCHAR
STARTCHAR C005
ENCODING 5
SWIDTH 480 0
DWIDTH 6 0
BBX 5 8 0 0
BITMAP
60
80
80
60
38
28
30
28
ENDCHAR
STARTCHAR C006
ENCODING 6
SWIDTH 480 0
DWIDTH 6 0
BBX 5 8 0 0
BITMAP
80
80
80
E0
38
20
30
20
ENDCHAR
STARTCHAR C007
ENCODING 7
SWIDTH 480 0
DWIDTH 6 0
BBX 5 5 0 5
BITMAP
70
88
88
88
70
ENDCHAR
STARTCHAR C010
ENCODING 8
SWIDTH 480 0
DWIDTH 6 0
BBX 5 7 0 1
BITMAP
20
20
F8
20
20
00
F8
ENDCHAR
STARTCHAR C011
ENCODING 9
SWIDTH 480 0
DWIDTH 6 0
BBX 5 8 0 0
BITMAP
90
D0
B0
90
20
20
20
38
ENDCHAR
STARTCHAR C012
ENCODING 10
SWIDTH 480 0
DWIDTH 6 0
BBX 5 8 0 0
BITMAP
A0
A0
40
40
38
10
10
10
ENDCHAR
STARTCHAR C013
ENCODING 11
SWIDTH 480 0
DWIDTH 6 0
BBX 3 7 0 4
BITMAP
20
20
20
20
20
20
E0
ENDCHAR
STARTCHAR C014
ENCODING 12
SWIDTH 480 0
DWIDTH 6 0
BBX 3 7 0 -2
BITMAP
E0
20
20
20
20
20
20
ENDCHAR
STARTCHAR C015
ENCODING 13
SWIDTH 480 0
DWIDTH 6 0
BBX 4 7 2 -2
BITMAP
F0
80
80
80
80
80
80
ENDCHAR
STARTCHAR C016
ENCODING 14
SWIDTH 480 0
DWIDTH 6 0
BBX 4 7 2 4
BITMAP
80
80
80
80
80
80
F0
ENDCHAR
STARTCHAR C017
ENCODING 15
SWIDTH 480 0
DWIDTH 6 0
BBX 6 13 0 -2
BITMAP
20
20
20
20
20
20
FC
20
20
20
20
20
20
ENDCHAR
STARTCHAR C020
ENCODING 16
SWIDTH 480 0
DWIDTH 6 0
BBX 6 1 0 10
BITMAP
FC
ENDCHAR
STARTCHAR C021
ENCODING 17
SWIDTH 480 0
DWIDTH 6 0
BBX 6 1 0 4
BITMAP
FC
ENDCHAR
STARTCHAR C022
ENCODING 18
SWIDTH 480 0
DWIDTH 6 0
BBX 6 1 0 4
BITMAP
FC
ENDCHAR
STARTCHAR C023
ENCODING 19
SWIDTH 480 0
DWIDTH 6 0
BBX 6 1 0 1
BITMAP
FC
ENDCHAR
STARTCHAR C024
ENCODING 20
SWIDTH 480 0
DWIDTH 6 0
BBX 6 1 0 -2
BITMAP
FC
ENDCHAR
STARTCHAR C025
ENCODING 21
SWIDTH 480 0
DWIDTH 6 0
BBX 6 13 0 -2
BITMAP
20
20
20
20
20
20
3C
20
20
20
20
20
20
ENDCHAR
STARTCHAR C026
ENCODING 22
SWIDTH 480 0
DWIDTH 6 0
BBX 6 13 0 -2
BITMAP
20
20
20
20
20
20
E0
20
20
20
20
20
20
ENDCHAR
STARTCHAR C027
ENCODING 23
SWIDTH 480 0
DWIDTH 6 0
BBX 6 7 0 4
BITMAP
20
20
20
20
20
20
FC
ENDCHAR
STARTCHAR C030
ENCODING 24
SWIDTH 480 0
DWIDTH 6 0
BBX 6 7 0 -2
BITMAP
FC
20
20
20
20
20
20
ENDCHAR
STARTCHAR C031
ENCODING 25
SWIDTH 480 0
DWIDTH 6 0
BBX 6 13 0 -2
BITMAP
20
20
20
20
20
20
20
20
20
20
20
20
20
ENDCHAR
STARTCHAR C032
ENCODING 26
SWIDTH 480 0
DWIDTH 6 0
BBX 4 9 0 -1
BITMAP
10
20
40
80
40
20
10
00
F0
ENDCHAR
STARTCHAR C033
ENCODING 27
SWIDTH 480 0
DWIDTH 6 0
BBX 4 9 0 -1
BITMAP
80
40
20
10
20
40
80
00
F0
ENDCHAR
STARTCHAR C034
ENCODING 28
SWIDTH 480 0
DWIDTH 6 0
BBX 5 6 0 1
BITMAP
F8
50
50
50
50
90
ENDCHAR
STARTCHAR C035
ENCODING 29
SWIDTH 480 0
DWIDTH 6 0
BBX 5 5 0 2
BITMAP
08
F8
20
F8
80
ENDCHAR
STARTCHAR C037
ENCODING 31
SWIDTH 480 0
DWIDTH 6 0
BBX 1 1 3 4
BITMAP
80
ENDCHAR
STARTCHAR space
ENCODING 32
SWIDTH 480 0
DWIDTH 6 0
BBX 0 0 0 0
BITMAP
ENDCHAR
STARTCHAR exclam
ENCODING 33
SWIDTH 480 0
DWIDTH 6 0
BBX 1 9 2 0
BITMAP
80
80
80
80
80
80
80
00
80
ENDCHAR
STARTCHAR quotedbl
ENCODING 34
SWIDTH 480 0
DWIDTH 6 0
BBX 4 2 0 7
BITMAP
90
90
ENDCHAR
STARTCHAR numbersign
ENCODING 35
SWIDTH 480 0
DWIDTH 6 0
BBX 5 5 0 2
BITMAP
50
F8
50
F8
50
ENDCHAR
STARTCHAR dollar
ENCODING 36
SWIDTH 480 0
DWIDTH 6 0
BBX 5 9 0 0
BITMAP
20
78
A0
A0
70
28
28
F0
20
ENDCHAR
STARTCHAR percent
ENCODING 37
SWIDTH 480 0
DWIDTH 6 0
BBX 5 9 0 0
BITMAP
10
90
10
20
20
20
40
48
40
ENDCHAR
STARTCHAR ampersand
ENCODING 38
SWIDTH 480 0
DWIDTH 6 0
BBX 5 8 0 0
BITMAP
70
50
50
78
90
88
88
F8
ENDCHAR
STARTCHAR apostrophe
ENCODING 39
SWIDTH 480 0
DWIDTH 6 0
BBX 2 2 1 7
BITMAP
40
80
ENDCHAR
STARTCHAR parenleft
ENCODING 40
SWIDTH 480 0
DWIDTH 6 0
BBX 3 9 1 0
BITMAP
20
40
80
80
80
80
80
40
20
ENDCHAR
STARTCHAR parenright
ENCODING 41
SWIDTH 480 0
DWIDTH 6 0
BBX 3 9 1 0
BITMAP
80
40
20
20
20
20
20
40
80
ENDCHAR
STARTCHAR asterisk
ENCODING 42
SWIDTH 480 0
DWIDTH 6 0
BBX 5 4 0 5
BITMAP
20
F8
70
50
ENDCHAR
STARTCHAR plus
ENCODING 43
SWIDTH 480 0
DWIDTH 6 0
BBX 5 5 0 2
BITMAP
20
20
F8
20
20
ENDCHAR
STARTCHAR comma
ENCODING 44
SWIDTH 480 0
DWIDTH 6 0
BBX 2 2 1 -1
BITMAP
40
80
ENDCHAR
STARTCHAR minus
ENCODING 45
SWIDTH 480 0
DWIDTH 6 0
BBX 3 1 1 4
BITMAP
E0
ENDCHAR
STARTCHAR period
ENCODING 46
SWIDTH 480 0
DWIDTH 6 0
BBX 1 1 2 0
BITMAP
80
ENDCHAR
STARTCHAR slash
ENCODING 47
SWIDTH 480 0
DWIDTH 6 0
BBX 3 9 1 0
BITMAP
20
20
20
40
40
40
80
80
80
ENDCHAR
STARTCHAR 0
ENCODING 48
SWIDTH 480 0
DWIDTH 6 0
BBX 5 9 0 0
BITMAP
F8
88
88
A8
A8
A8
88
88
F8
ENDCHAR
STARTCHAR 1
ENCODING 49
SWIDTH 480 0
DWIDTH 6 0
BBX 2 9 1 0
BITMAP
40
C0
40
40
40
40
40
40
40
ENDCHAR
STARTCHAR 2
ENCODING 50
SWIDTH 480 0
DWIDTH 6 0
BBX 5 9 0 0
BITMAP
F8
08
08
F8
80
80
80
80
F8
ENDCHAR
STARTCHAR 3
ENCODING 51
SWIDTH 480 0
DWIDTH 6 0
BBX 5 9 0 0
BITMAP
F8
08
08
38
08
08
08
08
F8
ENDCHAR
STARTCHAR 4
ENCODING 52
SWIDTH 480 0
DWIDTH 6 0
BBX 5 9 0 0
BITMAP
88
88
88
F8
08
08
08
08
08
ENDCHAR
STARTCHAR 5
ENCODING 53
SWIDTH 480 0
DWIDTH 6 0
BBX 5 9 0 0
BITMAP
F8
80
80
F8
08
08
08
08
F8
ENDCHAR
STARTCHAR 6
ENCODING 54
SWIDTH 480 0
DWIDTH 6 0
BBX 5 9 0 0
BITMAP
F8
80
80
F8
88
88
88
88
F8
ENDCHAR
STARTCHAR 7
ENCODING 55
SWIDTH 480 0
DWIDTH 6 0
BBX 5 9 0 0
BITMAP
F8
08
08
08
08
08
08
08
08
ENDCHAR
STARTCHAR 8
ENCODING 56
SWIDTH 480 0
DWIDTH 6 0
BBX 5 9 0 0
BITMAP
F8
88
88
F8
88
88
88
88
F8
ENDCHAR
STARTCHAR 9
ENCODING 57
SWIDTH 480 0
DWIDTH 6 0
BBX 5 9 0 0
BITMAP
F8
88
88
F8
08
08
08
08
08
ENDCHAR
STARTCHAR colon
ENCODING 58
SWIDTH 480 0
DWIDTH 6 0
BBX 1 5 2 0
BITMAP
80
00
00
00
80
ENDCHAR
STARTCHAR semicolon
ENCODING 59
SWIDTH 480 0
DWIDTH 6 0
BBX 2 6 1 -1
BITMAP
40
00
00
00
40
80
ENDCHAR
STARTCHAR less
ENCODING 60
SWIDTH 480 0
DWIDTH 6 0
BBX 4 7 0 1
BITMAP
10
20
40
80
40
20
10
ENDCHAR
STARTCHAR equal
ENCODING 61
SWIDTH 480 0
DWIDTH 6 0
BBX 4 3 1 3
BITMAP
F0
00
F0
ENDCHAR
STARTCHAR greater
ENCODING 62
SWIDTH 480 0
DWIDTH 6 0
BBX 4 7 1 1
BITMAP
80
40
20
10
20
40
80
ENDCHAR
STARTCHAR question
ENCODING 63
SWIDTH 480 0
DWIDTH 6 0
BBX 4 9 1 0
BITMAP
F0
10
10
F0
80
80
80
00
80
ENDCHAR
STARTCHAR at
ENCODING 64
SWIDTH 480 0
DWIDTH 6 0
BBX 5 9 0 0
BITMAP
70
88
A8
A8
A8
A8
68
08
70
ENDCHAR
STARTCHAR char65
ENCODING 65
SWIDTH 480 0
DWIDTH 6 0
BBX 5 9 0 0
BITMAP
F0
88
88
88
F8
88
88
88
88
ENDCHAR
STARTCHAR B
ENCODING 66
SWIDTH 480 0
DWIDTH 6 0
BBX 5 9 0 0
BITMAP
F0
88
88
88
F0
88
88
88
F8
ENDCHAR
STARTCHAR C
ENCODING 67
SWIDTH 480 0
DWIDTH 6 0
BBX 5 9 0 0
BITMAP
F8
80
80
80
80
80
80
80
F8
ENDCHAR
STARTCHAR D
ENCODING 68
SWIDTH 480 0
DWIDTH 6 0
BBX 5 9 0 0
BITMAP
F0
88
88
88
88
88
88
88
F8
ENDCHAR
STARTCHAR E
ENCODING 69
SWIDTH 480 0
DWIDTH 6 0
BBX 5 9 0 0
BITMAP
F8
80
80
80
E0
80
80
80
F8
ENDCHAR
STARTCHAR F
ENCODING 70
SWIDTH 480 0
DWIDTH 6 0
BBX 5 9 0 0
BITMAP
F8
80
80
80
E0
80
80
80
80
ENDCHAR
STARTCHAR G
ENCODING 71
SWIDTH 480 0
DWIDTH 6 0
BBX 5 9 0 0
BITMAP
F8
80
80
80
B8
88
88
88
F8
ENDCHAR
STARTCHAR H
ENCODING 72
SWIDTH 480 0
DWIDTH 6 0
BBX 5 9 0 0
BITMAP
88
88
88
F8
88
88
88
88
88
ENDCHAR
STARTCHAR I
ENCODING 73
SWIDTH 480 0
DWIDTH 6 0
BBX 3 9 1 0
BITMAP
E0
40
40
40
40
40
40
40
E0
ENDCHAR
STARTCHAR J
ENCODING 74
SWIDTH 480 0
DWIDTH 6 0
BBX 5 9 0 0
BITMAP
F8
08
08
08
08
08
08
10
E0
ENDCHAR
STARTCHAR K
ENCODING 75
SWIDTH 480 0
DWIDTH 6 0
BBX 5 9 0 0
BITMAP
88
90
A0
D0
88
88
88
88
88
ENDCHAR
STARTCHAR L
ENCODING 76
SWIDTH 480 0
DWIDTH 6 0
BBX 5 9 0 0
BITMAP
80
80
80
80
80
80
80
80
F8
ENDCHAR
STARTCHAR M
ENCODING 77
SWIDTH 480 0
DWIDTH 6 0
BBX 5 9 0 0
BITMAP
F8
A8
A8
A8
88
88
88
88
88
ENDCHAR
STARTCHAR N
ENCODING 78
SWIDTH 480 0
DWIDTH 6 0
BBX 5 9 0 0
BITMAP
C8
A8
98
88
88
88
88
88
88
ENDCHAR
STARTCHAR O
ENCODING 79
SWIDTH 480 0
DWIDTH 6 0
BBX 5 9 0 0
BITMAP
F8
88
88
88
88
88
88
88
F8
ENDCHAR
STARTCHAR P
ENCODING 80
SWIDTH 480 0
DWIDTH 6 0
BBX 5 9 0 0
BITMAP
F8
88
88
88
F8
80
80
80
80
ENDCHAR
STARTCHAR Q
ENCODING 81
SWIDTH 480 0
DWIDTH 6 0
BBX 5 9 0 0
BITMAP
F8
88
88
88
88
88
A8
98
F8
ENDCHAR
STARTCHAR R
ENCODING 82
SWIDTH 480 0
DWIDTH 6 0
BBX 5 9 0 0
BITMAP
F8
88
88
88
F8
90
88
88
88
ENDCHAR
STARTCHAR S
ENCODING 83
SWIDTH 480 0
DWIDTH 6 0
BBX 5 9 0 0
BITMAP
F8
80
80
80
F8
08
08
08
F8
ENDCHAR
STARTCHAR T
ENCODING 84
SWIDTH 480 0
DWIDTH 6 0
BBX 5 9 0 0
BITMAP
F8
20
20
20
20
20
20
20
20
ENDCHAR
STARTCHAR U
ENCODING 85
SWIDTH 480 0
DWIDTH 6 0
BBX 5 9 0 0
BITMAP
88
88
88
88
88
88
88
88
F8
ENDCHAR
STARTCHAR V
ENCODING 86
SWIDTH 480 0
DWIDTH 6 0
BBX 5 9 0 0
BITMAP
88
88
88
88
88
88
88
50
20
ENDCHAR
STARTCHAR W
ENCODING 87
SWIDTH 480 0
DWIDTH 6 0
BBX 5 9 0 0
BITMAP
88
88
88
88
88
A8
A8
A8
F8
ENDCHAR
STARTCHAR X
ENCODING 88
SWIDTH 480 0
DWIDTH 6 0
BBX 5 9 0 0
BITMAP
88
88
50
20
50
88
88
88
88
ENDCHAR
STARTCHAR Y
ENCODING 89
SWIDTH 480 0
DWIDTH 6 0
BBX 5 9 0 0
BITMAP
88
88
88
50
20
20
20
20
20
ENDCHAR
STARTCHAR Z
ENCODING 90
SWIDTH 480 0
DWIDTH 6 0
BBX 5 9 0 0
BITMAP
F8
08
08
10
20
40
80
80
F8
ENDCHAR
STARTCHAR bracketleft
ENCODING 91
SWIDTH 480 0
DWIDTH 6 0
BBX 3 9 1 0
BITMAP
E0
80
80
80
80
80
80
80
E0
ENDCHAR
STARTCHAR backslash
ENCODING 92
SWIDTH 480 0
DWIDTH 6 0
BBX 3 9 1 0
BITMAP
80
80
80
40
40
40
20
20
20
ENDCHAR
STARTCHAR bracketright
ENCODING 93
SWIDTH 480 0
DWIDTH 6 0
BBX 3 9 1 0
BITMAP
E0
20
20
20
20
20
20
20
E0
ENDCHAR
STARTCHAR asciicircum
ENCODING 94
SWIDTH 480 0
DWIDTH 6 0
BBX 5 3 0 6
BITMAP
20
50
88
ENDCHAR
STARTCHAR underscore
ENCODING 95
SWIDTH 480 0
DWIDTH 6 0
BBX 5 1 0 -1
BITMAP
F8
ENDCHAR
STARTCHAR grave
ENCODING 96
SWIDTH 480 0
DWIDTH 6 0
BBX 2 2 1 7
BITMAP
80
40
ENDCHAR
STARTCHAR a
ENCODING 97
SWIDTH 480 0
DWIDTH 6 0
BBX 5 6 0 0
BITMAP
F8
08
F8
88
88
F8
ENDCHAR
STARTCHAR b
ENCODING 98
SWIDTH 480 0
DWIDTH 6 0
BBX 5 9 0 0
BITMAP
80
80
80
F8
88
88
88
88
F8
ENDCHAR
STARTCHAR c
ENCODING 99
SWIDTH 480 0
DWIDTH 6 0
BBX 5 6 0 0
BITMAP
F8
80
80
80
80
F8
ENDCHAR
STARTCHAR d
ENCODING 100
SWIDTH 480 0
DWIDTH 6 0
BBX 5 9 0 0
BITMAP
08
08
08
F8
88
88
88
88
F8
ENDCHAR
STARTCHAR e
ENCODING 101
SWIDTH 480 0
DWIDTH 6 0
BBX 5 6 0 0
BITMAP
F8
88
88
F8
80
F8
ENDCHAR
STARTCHAR f
ENCODING 102
SWIDTH 480 0
DWIDTH 6 0
BBX 5 8 0 -2
BITMAP
78
40
40
40
F0
40
40
40
ENDCHAR
STARTCHAR g
ENCODING 103
SWIDTH 480 0
DWIDTH 6 0
BBX 5 8 0 -2
BITMAP
F8
88
88
88
88
F8
08
F8
ENDCHAR
STARTCHAR h
ENCODING 104
SWIDTH 480 0
DWIDTH 6 0
BBX 5 9 0 0
BITMAP
80
80
80
F8
88
88
88
88
88
ENDCHAR
STARTCHAR i
ENCODING 105
SWIDTH 480 0
DWIDTH 6 0
BBX 1 8 2 0
BITMAP
80
00
80
80
80
80
80
80
ENDCHAR
STARTCHAR j
ENCODING 106
SWIDTH 480 0
DWIDTH 6 0
BBX 3 9 0 -2
BITMAP
20
00
20
20
20
20
20
20
C0
ENDCHAR
STARTCHAR k
ENCODING 107
SWIDTH 480 0
DWIDTH 6 0
BBX 5 9 0 0
BITMAP
80
80
80
88
90
A0
D0
88
88
ENDCHAR
STARTCHAR l
ENCODING 108
SWIDTH 480 0
DWIDTH 6 0
BBX 2 9 2 0
BITMAP
80
80
80
80
80
80
80
80
C0
ENDCHAR
STARTCHAR m
ENCODING 109
SWIDTH 480 0
DWIDTH 6 0
BBX 5 6 0 0
BITMAP
D8
A8
A8
88
88
88
ENDCHAR
STARTCHAR n
ENCODING 110
SWIDTH 480 0
DWIDTH 6 0
BBX 5 6 0 0
BITMAP
F0
88
88
88
88
88
ENDCHAR
STARTCHAR o
ENCODING 111
SWIDTH 480 0
DWIDTH 6 0
BBX 5 6 0 0
BITMAP
F8
88
88
88
88
F8
ENDCHAR
STARTCHAR p
ENCODING 112
SWIDTH 480 0
DWIDTH 6 0
BBX 5 8 0 -2
BITMAP
F8
88
88
88
88
F8
80
80
ENDCHAR
STARTCHAR q
ENCODING 113
SWIDTH 480 0
DWIDTH 6 0
BBX 5 8 0 -2
BITMAP
F8
88
88
88
88
F8
08
08
ENDCHAR
STARTCHAR r
ENCODING 114
SWIDTH 480 0
DWIDTH 6 0
BBX 5 6 0 0
BITMAP
F8
80
80
80
80
80
ENDCHAR
STARTCHAR s
ENCODING 115
SWIDTH 480 0
DWIDTH 6 0
BBX 5 6 0 0
BITMAP
F8
80
F8
08
08
F8
ENDCHAR
STARTCHAR t
ENCODING 116
SWIDTH 480 0
DWIDTH 6 0
BBX 3 9 1 0
BITMAP
40
40
40
E0
40
40
40
40
40
ENDCHAR
STARTCHAR u
ENCODING 117
SWIDTH 480 0
DWIDTH 6 0
BBX 5 6 0 0
BITMAP
88
88
88
88
88
F8
ENDCHAR
STARTCHAR v
ENCODING 118
SWIDTH 480 0
DWIDTH 6 0
BBX 5 6 0 0
BITMAP
88
88
88
88
50
20
ENDCHAR
STARTCHAR w
ENCODING 119
SWIDTH 480 0
DWIDTH 6 0
BBX 5 6 0 0
BITMAP
88
88
88
A8
A8
D8
ENDCHAR
STARTCHAR x
ENCODING 120
SWIDTH 480 0
DWIDTH 6 0
BBX 5 6 0 0
BITMAP
88
50
20
50
88
88
ENDCHAR
STARTCHAR y
ENCODING 121
SWIDTH 480 0
DWIDTH 6 0
BBX 5 8 0 -2
BITMAP
88
88
88
88
88
F8
08
F8
ENDCHAR
STARTCHAR z
ENCODING 122
SWIDTH 480 0
DWIDTH 6 0
BBX 5 6 0 0
BITMAP
F8
08
30
40
80
F8
ENDCHAR
STARTCHAR braceleft
ENCODING 123
SWIDTH 480 0
DWIDTH 6 0
BBX 4 9 1 0
BITMAP
30
40
40
40
80
40
40
40
30
ENDCHAR
STARTCHAR bar
ENCODING 124
SWIDTH 480 0
DWIDTH 6 0
BBX 1 9 2 0
BITMAP
80
80
80
80
80
80
80
80
80
ENDCHAR
STARTCHAR braceright
ENCODING 125
SWIDTH 480 0
DWIDTH 6 0
BBX 4 9 1 0
BITMAP
C0
20
20
20
10
20
20
20
C0
ENDCHAR
STARTCHAR asciitilde
ENCODING 126
SWIDTH 480 0
DWIDTH 6 0
BBX 4 2 0 7
BITMAP
D0
B0
ENDCHAR
STARTCHAR C177
ENCODING 127
SWIDTH 480 0
DWIDTH 6 0
BBX 5 9 0 1
BITMAP
70
70
70
70
88
88
88
88
F8
ENDCHAR
STARTCHAR C200
ENCODING 128
SWIDTH 480 0
DWIDTH 6 0
BBX 5 8 0 0
BITMAP
30
48
B0
A8
A0
A0
A0
E0
ENDCHAR
STARTCHAR C201
ENCODING 129
SWIDTH 480 0
DWIDTH 6 0
BBX 5 8 0 0
BITMAP
08
08
88
48
A8
58
20
18
ENDCHAR
STARTCHAR C202
ENCODING 130
SWIDTH 480 0
DWIDTH 6 0
BBX 2 7 1 3
BITMAP
C0
40
40
40
40
40
80
ENDCHAR
STARTCHAR C203
ENCODING 131
SWIDTH 480 0
DWIDTH 6 0
BBX 5 8 1 2
BITMAP
38
40
B8
80
B8
B8
40
38
ENDCHAR
STARTCHAR C204
ENCODING 132
SWIDTH 480 0
DWIDTH 6 0
BBX 5 8 1 2
BITMAP
F8
00
F8
20
E0
F8
00
F8
ENDCHAR
STARTCHAR C205
ENCODING 133
SWIDTH 480 0
DWIDTH 6 0
BBX 2 8 1 2
BITMAP
C0
40
C0
00
00
C0
40
C0
ENDCHAR
STARTCHAR C206
ENCODING 134
SWIDTH 480 0
DWIDTH 6 0
BBX 5 8 1 2
BITMAP
E0
B8
40
38
38
40
B8
E0
ENDCHAR
STARTCHAR C207
ENCODING 135
SWIDTH 480 0
DWIDTH 6 0
BBX 5 4 1 4
BITMAP
F8
00
00
F8
ENDCHAR
STARTCHAR C210
ENCODING 136
SWIDTH 480 0
DWIDTH 6 0
BBX 5 8 1 2
BITMAP
18
70
88
70
70
88
70
18
ENDCHAR
STARTCHAR C211
ENCODING 137
SWIDTH 480 0
DWIDTH 6 0
BBX 1 8 1 2
BITMAP
80
80
00
00
00
00
80
80
ENDCHAR
STARTCHAR C212
ENCODING 138
SWIDTH 480 0
DWIDTH 6 0
BBX 5 8 1 2
BITMAP
E0
A0
A0
A0
A0
B8
40
38
ENDCHAR
STARTCHAR C213
ENCODING 139
SWIDTH 480 0
DWIDTH 6 0
BBX 5 8 1 2
BITMAP
08
08
08
08
08
F8
00
F8
ENDCHAR
STARTCHAR C214
ENCODING 140
SWIDTH 480 0
DWIDTH 6 0
BBX 2 7 1 3
BITMAP
C0
40
40
40
40
40
80
ENDCHAR
STARTCHAR C215
ENCODING 141
SWIDTH 480 0
DWIDTH 6 0
BBX 5 8 1 2
BITMAP
78
80
B8
80
78
F8
80
F8
ENDCHAR
STARTCHAR C216
ENCODING 142
SWIDTH 480 0
DWIDTH 6 0
BBX 5 8 1 2
BITMAP
F8
00
F8
00
F8
F8
00
F8
ENDCHAR
STARTCHAR C217
ENCODING 143
SWIDTH 480 0
DWIDTH 6 0
BBX 2 8 0 0
BITMAP
C0
40
C0
80
40
40
40
80
ENDCHAR
STARTCHAR C220
ENCODING 144
SWIDTH 480 0
DWIDTH 6 0
BBX 5 9 1 1
BITMAP
20
70
70
60
68
60
F8
F8
68
ENDCHAR
STARTCHAR C221
ENCODING 145
SWIDTH 480 0
DWIDTH 6 0
BBX 5 9 1 1
BITMAP
C0
18
D8
D0
90
40
F0
C0
80
ENDCHAR
STARTCHAR C222
ENCODING 146
SWIDTH 480 0
DWIDTH 6 0
BBX 5 9 1 2
BITMAP
18
08
20
A8
B8
B0
00
08
18
ENDCHAR
STARTCHAR C223
ENCODING 147
SWIDTH 480 0
DWIDTH 6 0
BBX 5 8 0 0
BITMAP
08
D8
F0
70
70
F8
D8
D8
ENDCHAR
STARTCHAR C224
ENCODING 148
SWIDTH 480 0
DWIDTH 6 0
BBX 5 10 0 0
BITMAP
F8
88
88
88
88
88
88
88
88
F8
ENDCHAR
STARTCHAR C225
ENCODING 149
SWIDTH 480 0
DWIDTH 6 0
BBX 5 10 0 0
BITMAP
F8
88
88
88
88
88
88
88
88
F8
ENDCHAR
STARTCHAR C226
ENCODING 150
SWIDTH 480 0
DWIDTH 6 0
BBX 5 10 0 0
BITMAP
F8
88
88
88
88
88
88
88
88
F8
ENDCHAR
STARTCHAR C227
ENCODING 151
SWIDTH 480 0
DWIDTH 6 0
BBX 5 10 0 0
BITMAP
F8
88
88
88
88
88
88
88
88
F8
ENDCHAR
STARTCHAR C230
ENCODING 152
SWIDTH 480 0
DWIDTH 6 0
BBX 5 10 0 0
BITMAP
F8
88
88
88
88
88
88
88
88
F8
ENDCHAR
STARTCHAR C231
ENCODING 153
SWIDTH 480 0
DWIDTH 6 0
BBX 5 10 0 0
BITMAP
F8
88
88
88
88
88
88
88
88
F8
ENDCHAR
STARTCHAR C232
ENCODING 154
SWIDTH 480 0
DWIDTH 6 0
BBX 5 10 0 0
BITMAP
F8
88
88
88
88
88
88
88
88
F8
ENDCHAR
STARTCHAR C233
ENCODING 155
SWIDTH 480 0
DWIDTH 6 0
BBX 4 9 1 1
BITMAP
20
20
70
80
80
80
70
20
20
ENDCHAR
STARTCHAR C234
ENCODING 156
SWIDTH 480 0
DWIDTH 6 0
BBX 4 7 1 2
BITMAP
20
50
40
60
40
E0
D0
ENDCHAR
STARTCHAR C235
ENCODING 157
SWIDTH 480 0
DWIDTH 6 0
BBX 4 9 1 2
BITMAP
90
90
50
30
10
30
10
30
10
ENDCHAR
STARTCHAR C236
ENCODING 158
SWIDTH 480 0
DWIDTH 6 0
BBX 5 10 0 0
BITMAP
F8
88
88
88
88
88
88
88
88
F8
ENDCHAR
STARTCHAR C237
ENCODING 159
SWIDTH 480 0
DWIDTH 6 0
BBX 5 10 0 0
BITMAP
10
28
20
20
70
20
20
20
A0
40
ENDCHAR
STARTCHAR nobreakspace
ENCODING 160
SWIDTH 480 0
DWIDTH 6 0
BBX 0 0 0 0
BITMAP
ENDCHAR
STARTCHAR exclamdown
ENCODING 161
SWIDTH 480 0
DWIDTH 6 0
BBX 1 10 2 0
BITMAP
80
00
80
80
80
80
80
80
80
80
ENDCHAR
STARTCHAR cent
ENCODING 162
SWIDTH 480 0
DWIDTH 6 0
BBX 4 9 0 0
BITMAP
20
20
70
80
80
80
70
20
20
ENDCHAR
STARTCHAR sterling
ENCODING 163
SWIDTH 480 0
DWIDTH 6 0
BBX 4 8 0 0
BITMAP
20
50
40
E0
40
40
50
A0
ENDCHAR
STARTCHAR currency
ENCODING 164
SWIDTH 480 0
DWIDTH 6 0
BBX 5 6 0 1
BITMAP
88
70
50
50
70
88
ENDCHAR
STARTCHAR yen
ENCODING 165
SWIDTH 480 0
DWIDTH 6 0
BBX 4 8 1 3
BITMAP
90
50
20
20
70
20
70
20
ENDCHAR
STARTCHAR brokenbar
ENCODING 166
SWIDTH 480 0
DWIDTH 6 0
BBX 1 9 2 0
BITMAP
80
80
80
80
00
80
80
80
80
ENDCHAR
STARTCHAR section
ENCODING 167
SWIDTH 480 0
DWIDTH 6 0
BBX 5 10 0 -1
BITMAP
10
28
20
20
70
20
20
20
A0
40
ENDCHAR
STARTCHAR diaeresis
ENCODING 168
SWIDTH 480 0
DWIDTH 6 0
BBX 5 1 0 8
BITMAP
D8
ENDCHAR
STARTCHAR copyright
ENCODING 169
SWIDTH 480 0
DWIDTH 6 0
BBX 5 10 0 0
BITMAP
70
88
A8
D8
C8
C8
D8
A8
88
70
ENDCHAR
STARTCHAR ordfeminine
ENCODING 170
SWIDTH 480 0
DWIDTH 6 0
BBX 4 6 1 3
BITMAP
60
90
90
70
00
F0
ENDCHAR
STARTCHAR guillemotleft
ENCODING 171
SWIDTH 480 0
DWIDTH 6 0
BBX 4 3 1 5
BITMAP
50
A0
50
ENDCHAR
STARTCHAR notsign
ENCODING 172
SWIDTH 480 0
DWIDTH 6 0
BBX 5 2 0 7
BITMAP
F8
08
ENDCHAR
STARTCHAR hyphen
ENCODING 173
SWIDTH 480 0
DWIDTH 6 0
BBX 5 1 1 6
BITMAP
F8
ENDCHAR
STARTCHAR registered
ENCODING 174
SWIDTH 480 0
DWIDTH 6 0
BBX 5 10 0 0
BITMAP
70
88
E8
D8
D8
E8
D8
D8
88
70
ENDCHAR
STARTCHAR macron
ENCODING 175
SWIDTH 480 0
DWIDTH 6 0
BBX 5 1 1 10
BITMAP
F8
ENDCHAR
STARTCHAR degree
ENCODING 176
SWIDTH 480 0
DWIDTH 6 0
BBX 3 3 2 7
BITMAP
40
A0
40
ENDCHAR
STARTCHAR plusminus
ENCODING 177
SWIDTH 480 0
DWIDTH 6 0
BBX 3 5 1 1
BITMAP
40
E0
40
00
E0
ENDCHAR
STARTCHAR twosuperior
ENCODING 178
SWIDTH 480 0
DWIDTH 6 0
BBX 3 4 1 4
BITMAP
C0
20
40
E0
ENDCHAR
STARTCHAR threesuperior
ENCODING 179
SWIDTH 480 0
DWIDTH 6 0
BBX 3 5 1 4
BITMAP
C0
20
40
20
C0
ENDCHAR
STARTCHAR acute
ENCODING 180
SWIDTH 480 0
DWIDTH 6 0
BBX 3 3 1 7
BITMAP
20
40
80
ENDCHAR
STARTCHAR mu
ENCODING 181
SWIDTH 480 0
DWIDTH 6 0
BBX 4 8 1 1
BITMAP
50
50
50
50
50
60
40
80
ENDCHAR
STARTCHAR paragraph
ENCODING 182
SWIDTH 480 0
DWIDTH 6 0
BBX 4 9 1 1
BITMAP
70
D0
D0
D0
D0
50
50
50
50
ENDCHAR
STARTCHAR periodcentered
ENCODING 183
SWIDTH 480 0
DWIDTH 6 0
BBX 2 2 2 4
BITMAP
C0
C0
ENDCHAR
STARTCHAR cedilla
ENCODING 184
SWIDTH 480 0
DWIDTH 6 0
BBX 2 2 1 2
BITMAP
40
80
ENDCHAR
STARTCHAR onesuperior
ENCODING 185
SWIDTH 480 0
DWIDTH 6 0
BBX 3 4 1 4
BITMAP
40
C0
40
E0
ENDCHAR
STARTCHAR masculine
ENCODING 186
SWIDTH 480 0
DWIDTH 6 0
BBX 4 6 1 3
BITMAP
60
90
90
60
00
F0
ENDCHAR
STARTCHAR guillemotright
ENCODING 187
SWIDTH 480 0
DWIDTH 6 0
BBX 4 3 1 5
BITMAP
A0
50
A0
ENDCHAR
STARTCHAR onequarter
ENCODING 188
SWIDTH 480 0
DWIDTH 6 0
BBX 4 9 0 0
BITMAP
80
80
90
A0
50
90
50
70
10
ENDCHAR
STARTCHAR onehalf
ENCODING 189
SWIDTH 480 0
DWIDTH 6 0
BBX 4 9 0 0
BITMAP
80
80
90
A0
40
B0
10
20
30
ENDCHAR
STARTCHAR threequarters
ENCODING 190
SWIDTH 480 0
DWIDTH 6 0
BBX 4 10 0 -1
BITMAP
C0
40
C0
50
E0
40
90
50
70
10
ENDCHAR
STARTCHAR questiondown
ENCODING 191
SWIDTH 480 0
DWIDTH 6 0
BBX 4 7 0 1
BITMAP
20
00
20
60
80
80
70
ENDCHAR
STARTCHAR Agrave
ENCODING 192
SWIDTH 480 0
DWIDTH 6 0
BBX 4 8 0 1
BITMAP
C0
00
80
C0
A0
F0
90
90
ENDCHAR
STARTCHAR Aacute
ENCODING 193
SWIDTH 480 0
DWIDTH 6 0
BBX 4 8 0 1
BITMAP
30
00
80
C0
A0
F0
90
90
ENDCHAR
STARTCHAR Acircumflex
ENCODING 194
SWIDTH 480 0
DWIDTH 6 0
BBX 4 8 0 1
BITMAP
20
50
80
C0
A0
F0
90
90
ENDCHAR
STARTCHAR Atilde
ENCODING 195
SWIDTH 480 0
DWIDTH 6 0
BBX 4 8 0 1
BITMAP
50
A0
80
C0
A0
F0
90
90
ENDCHAR
STARTCHAR Adiaeresis
ENCODING 196
SWIDTH 480 0
DWIDTH 6 0
BBX 4 8 0 1
BITMAP
50
00
80
C0
A0
F0
90
90
ENDCHAR
STARTCHAR Aring
ENCODING 197
SWIDTH 480 0
DWIDTH 6 0
BBX 4 8 0 1
BITMAP
20
00
80
C0
A0
F0
90
90
ENDCHAR
STARTCHAR AE
ENCODING 198
SWIDTH 480 0
DWIDTH 6 0
BBX 4 8 0 1
BITMAP
80
F0
A0
F0
A0
A0
A0
B0
ENDCHAR
STARTCHAR Ccedilla
ENCODING 199
SWIDTH 480 0
DWIDTH 6 0
BBX 4 10 0 -1
BITMAP
10
20
40
80
80
80
80
70
20
40
ENDCHAR
STARTCHAR Egrave
ENCODING 200
SWIDTH 480 0
DWIDTH 6 0
BBX 4 8 0 1
BITMAP
C0
00
10
20
40
E0
80
F0
ENDCHAR
STARTCHAR Eacute
ENCODING 201
SWIDTH 480 0
DWIDTH 6 0
BBX 4 8 0 1
BITMAP
30
00
10
20
40
E0
80
F0
ENDCHAR
STARTCHAR Ecircumflex
ENCODING 202
SWIDTH 480 0
DWIDTH 6 0
BBX 4 8 0 1
BITMAP
20
50
10
20
40
E0
80
F0
ENDCHAR
STARTCHAR Ediaeresis
ENCODING 203
SWIDTH 480 0
DWIDTH 6 0
BBX 4 8 0 1
BITMAP
50
00
10
20
40
E0
80
F0
ENDCHAR
STARTCHAR Igrave
ENCODING 204
SWIDTH 480 0
DWIDTH 6 0
BBX 3 8 0 1
BITMAP
C0
00
E0
40
40
40
40
E0
ENDCHAR
STARTCHAR Iacute
ENCODING 205
SWIDTH 480 0
DWIDTH 6 0
BBX 4 8 0 1
BITMAP
30
00
E0
40
40
40
40
E0
ENDCHAR
STARTCHAR Icircumflex
ENCODING 206
SWIDTH 480 0
DWIDTH 6 0
BBX 3 8 0 1
BITMAP
40
A0
E0
40
40
40
40
E0
ENDCHAR
STARTCHAR Idiaeresis
ENCODING 207
SWIDTH 480 0
DWIDTH 6 0
BBX 3 8 0 1
BITMAP
A0
00
E0
40
40
40
40
E0
ENDCHAR
STARTCHAR ETH
ENCODING 208
SWIDTH 480 0
DWIDTH 6 0
BBX 4 8 0 1
BITMAP
80
C0
A0
90
D0
90
90
E0
ENDCHAR
STARTCHAR Ntilde
ENCODING 209
SWIDTH 480 0
DWIDTH 6 0
BBX 4 8 0 1
BITMAP
50
A0
90
D0
B0
90
90
90
ENDCHAR
STARTCHAR Ograve
ENCODING 210
SWIDTH 480 0
DWIDTH 6 0
BBX 4 8 0 1
BITMAP
C0
00
60
90
90
90
90
60
ENDCHAR
STARTCHAR Oacute
ENCODING 211
SWIDTH 480 0
DWIDTH 6 0
BBX 4 8 0 1
BITMAP
30
00
60
90
90
90
90
60
ENDCHAR
STARTCHAR Ocircumflex
ENCODING 212
SWIDTH 480 0
DWIDTH 6 0
BBX 4 8 0 1
BITMAP
20
50
60
90
90
90
90
60
ENDCHAR
STARTCHAR Otilde
ENCODING 213
SWIDTH 480 0
DWIDTH 6 0
BBX 5 9 0 0
BITMAP
50
A0
00
F8
88
88
88
88
F8
ENDCHAR
STARTCHAR Odiaeresis
ENCODING 214
SWIDTH 480 0
DWIDTH 6 0
BBX 5 8 0 0
BITMAP
50
00
F8
88
88
88
88
F8
ENDCHAR
STARTCHAR multiply
ENCODING 215
SWIDTH 480 0
DWIDTH 6 0
BBX 5 5 0 1
BITMAP
88
50
20
50
88
ENDCHAR
STARTCHAR Ooblique
ENCODING 216
SWIDTH 480 0
DWIDTH 6 0
BBX 4 7 1 3
BITMAP
60
90
90
F0
90
90
60
ENDCHAR
STARTCHAR Ugrave
ENCODING 217
SWIDTH 480 0
DWIDTH 6 0
BBX 5 10 0 0
BITMAP
E0
08
88
88
88
88
88
88
88
F8
ENDCHAR
STARTCHAR Uacute
ENCODING 218
SWIDTH 480 0
DWIDTH 6 0
BBX 5 10 0 0
BITMAP
38
80
88
88
88
88
88
88
88
F8
ENDCHAR
STARTCHAR Ucircumflex
ENCODING 219
SWIDTH 480 0
DWIDTH 6 0
BBX 5 11 0 0
BITMAP
10
20
88
88
88
88
88
88
88
88
F8
ENDCHAR
STARTCHAR Udiaeresis
ENCODING 220
SWIDTH 480 0
DWIDTH 6 0
BBX 5 11 0 0
BITMAP
50
00
88
88
88
88
88
88
88
88
F8
ENDCHAR
STARTCHAR Yacute
ENCODING 221
SWIDTH 480 0
DWIDTH 6 0
BBX 4 8 0 -1
BITMAP
30
00
90
90
50
30
10
10
ENDCHAR
STARTCHAR THORN
ENCODING 222
SWIDTH 480 0
DWIDTH 6 0
BBX 4 8 0 0
BITMAP
80
80
E0
90
90
E0
80
80
ENDCHAR
STARTCHAR ssharp
ENCODING 223
SWIDTH 480 0
DWIDTH 6 0
BBX 4 8 0 -1
BITMAP
60
90
A0
90
90
A0
80
80
ENDCHAR
STARTCHAR agrave
ENCODING 224
SWIDTH 480 0
DWIDTH 6 0
BBX 5 10 0 0
BITMAP
40
20
10
00
F8
08
F8
88
88
F8
ENDCHAR
STARTCHAR aacute
ENCODING 225
SWIDTH 480 0
DWIDTH 6 0
BBX 5 10 0 0
BITMAP
10
20
40
00
F8
08
F8
88
88
F8
ENDCHAR
STARTCHAR acircumflex
ENCODING 226
SWIDTH 480 0
DWIDTH 6 0
BBX 5 9 0 0
BITMAP
20
50
00
F8
08
F8
88
88
F8
ENDCHAR
STARTCHAR atilde
ENCODING 227
SWIDTH 480 0
DWIDTH 6 0
BBX 5 9 0 0
BITMAP
28
50
00
F8
08
F8
88
88
F8
ENDCHAR
STARTCHAR adiaeresis
ENCODING 228
SWIDTH 480 0
DWIDTH 6 0
BBX 5 9 0 0
BITMAP
50
50
00
F8
08
F8
88
88
F8
ENDCHAR
STARTCHAR aring
ENCODING 229
SWIDTH 480 0
DWIDTH 6 0
BBX 5 10 0 0
BITMAP
20
50
20
00
F8
08
F8
88
88
F8
ENDCHAR
STARTCHAR ae
ENCODING 230
SWIDTH 480 0
DWIDTH 6 0
BBX 5 6 0 0
BITMAP
F8
28
E8
B8
A0
F8
ENDCHAR
STARTCHAR ccedilla
ENCODING 231
SWIDTH 480 0
DWIDTH 6 0
BBX 5 8 0 -2
BITMAP
F8
80
80
80
80
F8
20
40
ENDCHAR
STARTCHAR egrave
ENCODING 232
SWIDTH 480 0
DWIDTH 6 0
BBX 5 10 0 0
BITMAP
40
20
10
00
F8
88
88
F8
80
F8
ENDCHAR
STARTCHAR eacute
ENCODING 233
SWIDTH 480 0
DWIDTH 6 0
BBX 5 10 0 0
BITMAP
10
20
40
00
F8
88
88
F8
80
F8
ENDCHAR
STARTCHAR ecircumflex
ENCODING 234
SWIDTH 480 0
DWIDTH 6 0
BBX 5 9 0 0
BITMAP
20
50
00
F8
88
88
F8
80
F8
ENDCHAR
STARTCHAR ediaeresis
ENCODING 235
SWIDTH 480 0
DWIDTH 6 0
BBX 5 9 0 0
BITMAP
50
50
00
F8
88
88
F8
80
F8
ENDCHAR
STARTCHAR igrave
ENCODING 236
SWIDTH 480 0
DWIDTH 6 0
BBX 2 8 1 1
BITMAP
80
40
00
00
40
40
40
40
ENDCHAR
STARTCHAR iacute
ENCODING 237
SWIDTH 480 0
DWIDTH 6 0
BBX 2 8 1 1
BITMAP
40
80
00
00
40
40
40
40
ENDCHAR
STARTCHAR icircumflex
ENCODING 238
SWIDTH 480 0
DWIDTH 6 0
BBX 3 8 1 1
BITMAP
40
A0
00
00
40
40
40
40
ENDCHAR
STARTCHAR idiaeresis
ENCODING 239
SWIDTH 480 0
DWIDTH 6 0
BBX 3 8 1 1
BITMAP
A0
A0
00
00
40
40
40
40
ENDCHAR
STARTCHAR eth
ENCODING 240
SWIDTH 480 0
DWIDTH 6 0
BBX 4 8 0 0
BITMAP
50
00
60
10
60
90
90
60
ENDCHAR
STARTCHAR ntilde
ENCODING 241
SWIDTH 480 0
DWIDTH 6 0
BBX 4 8 0 0
BITMAP
50
A0
00
E0
90
90
90
90
ENDCHAR
STARTCHAR ograve
ENCODING 242
SWIDTH 480 0
DWIDTH 6 0
BBX 4 8 0 0
BITMAP
40
20
00
60
90
90
90
60
ENDCHAR
STARTCHAR oacute
ENCODING 243
SWIDTH 480 0
DWIDTH 6 0
BBX 4 8 0 0
BITMAP
20
40
00
60
90
90
90
60
ENDCHAR
STARTCHAR ocircumflex
ENCODING 244
SWIDTH 480 0
DWIDTH 6 0
BBX 4 8 0 0
BITMAP
20
50
00
60
90
90
90
60
ENDCHAR
STARTCHAR otilde
ENCODING 245
SWIDTH 480 0
DWIDTH 6 0
BBX 4 8 0 0
BITMAP
50
A0
00
60
90
90
90
60
ENDCHAR
STARTCHAR odiaeresis
ENCODING 246
SWIDTH 480 0
DWIDTH 6 0
BBX 4 8 0 0
BITMAP
50
50
00
60
90
90
90
60
ENDCHAR
STARTCHAR division
ENCODING 247
SWIDTH 480 0
DWIDTH 6 0
BBX 5 5 0 1
BITMAP
20
00
F8
00
20
ENDCHAR
STARTCHAR oslash
ENCODING 248
SWIDTH 480 0
DWIDTH 6 0
BBX 5 7 0 -1
BITMAP
08
70
B8
A8
E8
70
80
ENDCHAR
STARTCHAR ugrave
ENCODING 249
SWIDTH 480 0
DWIDTH 6 0
BBX 5 9 0 0
BITMAP
40
20
00
88
88
88
88
88
F8
ENDCHAR
STARTCHAR uacute
ENCODING 250
SWIDTH 480 0
DWIDTH 6 0
BBX 5 9 0 0
BITMAP
10
20
00
88
88
88
88
88
F8
ENDCHAR
STARTCHAR ucircumflex
ENCODING 251
SWIDTH 480 0
DWIDTH 6 0
BBX 5 9 0 0
BITMAP
20
50
00
88
88
88
88
88
F8
ENDCHAR
STARTCHAR udiaeresis
ENCODING 252
SWIDTH 480 0
DWIDTH 6 0
BBX 5 8 0 0
BITMAP
50
00
88
88
88
88
88
F8
ENDCHAR
STARTCHAR yacute
ENCODING 253
SWIDTH 480 0
DWIDTH 6 0
BBX 4 10 0 -2
BITMAP
20
40
00
90
90
90
90
70
10
E0
ENDCHAR
STARTCHAR thorn
ENCODING 254
SWIDTH 480 0
DWIDTH 6 0
BBX 3 8 0 0
BITMAP
80
80
80
C0
A0
C0
80
80
ENDCHAR
STARTCHAR ydiaeresis
ENCODING 255
SWIDTH 480 0
DWIDTH 6 0
BBX 5 10 0 -2
BITMAP
50
00
88
88
88
88
88
F8
08
F8
ENDCHAR
ENDFONT
